<?xml version="1.0" standalone="no"?>
<!DOCTYPE svg PUBLIC "-//W3C//DTD SVG 20010904//EN"
 "http://www.w3.org/TR/2001/REC-SVG-20010904/DTD/svg10.dtd">
<svg version="1.0" xmlns="http://www.w3.org/2000/svg"
 width="700.000000pt" height="700.000000pt" viewBox="0 0 700.000000 700.000000"
 preserveAspectRatio="xMidYMid meet">
<metadata>
Created by potrace 1.14, written by Peter Selinger 2001-2017
</metadata>
<g transform="translate(0.000000,700.000000) scale(0.100000,-0.100000)"
fill="#000000" stroke="none">
<path d="M3244 6989 c-820 -56 -1621 -424 -2214 -1018 -788 -789 -1149 -1873
-990 -2976 163 -1139 894 -2138 1935 -2644 346 -169 684 -269 1096 -328 97
-14 192 -18 439 -18 275 1 335 3 470 23 765 112 1428 437 1969 966 515 505
848 1113 991 1811 45 221 60 389 60 693 0 370 -21 554 -96 855 -203 807 -703
1530 -1390 2013 -660 463 -1447 679 -2270 623z m676 -314 c864 -120 1622 -561
2145 -1250 320 -420 535 -935 616 -1470 27 -178 37 -577 20 -751 -128 -1284
-976 -2344 -2201 -2754 -330 -110 -762 -171 -1105 -155 -717 32 -1319 256
-1897 705 -116 90 -417 395 -514 520 -475 614 -704 1313 -681 2075 15 479 114
875 327 1310 163 333 352 598 615 860 526 525 1231 855 1970 924 145 14 567 5
705 -14z"/>
<path d="M3185 6464 c-620 -68 -1208 -329 -1676 -746 -151 -135 -308 -309
-413 -455 l-38 -53 1911 0 1911 0 -6 -27 c-3 -16 -52 -221 -108 -458 l-102
-430 -312 -3 c-172 -1 -312 1 -312 5 1 5 16 72 34 151 l33 142 -1693 0 -1693
0 -19 -52 c-87 -234 -147 -490 -172 -741 -19 -180 -8 -598 19 -755 61 -357
144 -611 292 -903 251 -494 638 -912 1115 -1202 53 -32 98 -56 100 -54 3 2 99
411 213 908 115 497 285 1231 377 1632 l168 727 1804 0 1804 0 -7 37 c-14 78
-76 276 -121 390 -420 1064 -1398 1795 -2529 1892 -162 14 -422 12 -580 -5z"/>
<path d="M3221 3082 c-58 -246 -211 -897 -341 -1447 -159 -673 -233 -1002
-225 -1007 33 -20 376 -92 479 -100 l39 -3 248 1080 c137 594 285 1241 331
1438 l82 357 308 0 c169 0 308 -2 308 -6 0 -3 -34 -148 -75 -322 -41 -174
-192 -814 -335 -1422 -143 -608 -263 -1111 -266 -1119 -6 -18 101 -9 281 24
880 163 1638 712 2074 1501 222 402 342 840 367 1339 l7 135 -1589 0 -1589 0
-104 -448z"/>
</g>
</svg>
