<?xml version="1.0" encoding="UTF-8" ?>
<svg version="1.1" width="192" height="128" xmlns="http://www.w3.org/2000/svg" shape-rendering="crispEdges">
<rect x="64" y="57" width="1" height="1" fill="#555555" />
<rect x="65" y="57" width="1" height="1" fill="#555555" />
<rect x="66" y="57" width="1" height="1" fill="#555555" />
<rect x="67" y="57" width="1" height="1" fill="#555555" />
<rect x="68" y="57" width="1" height="1" fill="#555555" />
<rect x="69" y="57" width="1" height="1" fill="#555555" />
<rect x="70" y="57" width="1" height="1" fill="#555555" />
<rect x="71" y="57" width="1" height="1" fill="#555555" />
<rect x="72" y="57" width="1" height="1" fill="#555555" />
<rect x="73" y="57" width="1" height="1" fill="#555555" />
<rect x="74" y="57" width="1" height="1" fill="#555555" />
<rect x="75" y="57" width="1" height="1" fill="#555555" />
<rect x="76" y="57" width="1" height="1" fill="#555555" />
<rect x="77" y="57" width="1" height="1" fill="#555555" />
<rect x="78" y="57" width="1" height="1" fill="#555555" />
<rect x="79" y="57" width="1" height="1" fill="#555555" />
<rect x="80" y="57" width="1" height="1" fill="#555555" />
<rect x="81" y="57" width="1" height="1" fill="#555555" />
<rect x="82" y="57" width="1" height="1" fill="#555555" />
<rect x="83" y="57" width="1" height="1" fill="#555555" />
<rect x="84" y="57" width="1" height="1" fill="#555555" />
<rect x="85" y="57" width="1" height="1" fill="#555555" />
<rect x="86" y="57" width="1" height="1" fill="#555555" />
<rect x="87" y="57" width="1" height="1" fill="#555555" />
<rect x="88" y="57" width="1" height="1" fill="#555555" />
<rect x="89" y="57" width="1" height="1" fill="#555555" />
<rect x="90" y="57" width="1" height="1" fill="#555555" />
<rect x="91" y="57" width="1" height="1" fill="#555555" />
<rect x="92" y="57" width="1" height="1" fill="#555555" />
<rect x="93" y="57" width="1" height="1" fill="#555555" />
<rect x="94" y="57" width="1" height="1" fill="#555555" />
<rect x="95" y="57" width="1" height="1" fill="#555555" />
<rect x="96" y="57" width="1" height="1" fill="#555555" />
<rect x="97" y="57" width="1" height="1" fill="#555555" />
<rect x="98" y="57" width="1" height="1" fill="#555555" />
<rect x="99" y="57" width="1" height="1" fill="#555555" />
<rect x="100" y="57" width="1" height="1" fill="#555555" />
<rect x="101" y="57" width="1" height="1" fill="#555555" />
<rect x="102" y="57" width="1" height="1" fill="#555555" />
<rect x="103" y="57" width="1" height="1" fill="#555555" />
<rect x="104" y="57" width="1" height="1" fill="#555555" />
<rect x="105" y="57" width="1" height="1" fill="#555555" />
<rect x="106" y="57" width="1" height="1" fill="#555555" />
<rect x="107" y="57" width="1" height="1" fill="#555555" />
<rect x="108" y="57" width="1" height="1" fill="#555555" />
<rect x="109" y="57" width="1" height="1" fill="#555555" />
<rect x="110" y="57" width="1" height="1" fill="#555555" />
<rect x="111" y="57" width="1" height="1" fill="#555555" />
<rect x="112" y="57" width="1" height="1" fill="#555555" />
<rect x="113" y="57" width="1" height="1" fill="#555555" />
<rect x="114" y="57" width="1" height="1" fill="#555555" />
<rect x="115" y="57" width="1" height="1" fill="#555555" />
<rect x="116" y="57" width="1" height="1" fill="#555555" />
<rect x="117" y="57" width="1" height="1" fill="#555555" />
<rect x="118" y="57" width="1" height="1" fill="#555555" />
<rect x="119" y="57" width="1" height="1" fill="#555555" />
<rect x="120" y="57" width="1" height="1" fill="#555555" />
<rect x="121" y="57" width="1" height="1" fill="#555555" />
<rect x="122" y="57" width="1" height="1" fill="#555555" />
<rect x="123" y="57" width="1" height="1" fill="#555555" />
<rect x="124" y="57" width="1" height="1" fill="#555555" />
<rect x="125" y="57" width="1" height="1" fill="#555555" />
<rect x="126" y="57" width="1" height="1" fill="#555555" />
<rect x="127" y="57" width="1" height="1" fill="#555555" />
<rect x="64" y="58" width="1" height="1" fill="#000000" />
<rect x="65" y="58" width="1" height="1" fill="#000000" />
<rect x="66" y="58" width="1" height="1" fill="#000000" />
<rect x="67" y="58" width="1" height="1" fill="#000000" />
<rect x="68" y="58" width="1" height="1" fill="#000000" />
<rect x="69" y="58" width="1" height="1" fill="#000000" />
<rect x="70" y="58" width="1" height="1" fill="#000000" />
<rect x="71" y="58" width="1" height="1" fill="#000000" />
<rect x="72" y="58" width="1" height="1" fill="#000000" />
<rect x="73" y="58" width="1" height="1" fill="#000000" />
<rect x="74" y="58" width="1" height="1" fill="#000000" />
<rect x="75" y="58" width="1" height="1" fill="#000000" />
<rect x="76" y="58" width="1" height="1" fill="#000000" />
<rect x="77" y="58" width="1" height="1" fill="#000000" />
<rect x="78" y="58" width="1" height="1" fill="#000000" />
<rect x="79" y="58" width="1" height="1" fill="#000000" />
<rect x="80" y="58" width="1" height="1" fill="#000000" />
<rect x="81" y="58" width="1" height="1" fill="#000000" />
<rect x="82" y="58" width="1" height="1" fill="#000000" />
<rect x="83" y="58" width="1" height="1" fill="#000000" />
<rect x="84" y="58" width="1" height="1" fill="#000000" />
<rect x="85" y="58" width="1" height="1" fill="#000000" />
<rect x="86" y="58" width="1" height="1" fill="#000000" />
<rect x="87" y="58" width="1" height="1" fill="#000000" />
<rect x="88" y="58" width="1" height="1" fill="#000000" />
<rect x="89" y="58" width="1" height="1" fill="#000000" />
<rect x="90" y="58" width="1" height="1" fill="#000000" />
<rect x="91" y="58" width="1" height="1" fill="#000000" />
<rect x="92" y="58" width="1" height="1" fill="#000000" />
<rect x="93" y="58" width="1" height="1" fill="#000000" />
<rect x="94" y="58" width="1" height="1" fill="#000000" />
<rect x="95" y="58" width="1" height="1" fill="#000000" />
<rect x="96" y="58" width="1" height="1" fill="#000000" />
<rect x="97" y="58" width="1" height="1" fill="#000000" />
<rect x="98" y="58" width="1" height="1" fill="#000000" />
<rect x="99" y="58" width="1" height="1" fill="#000000" />
<rect x="100" y="58" width="1" height="1" fill="#000000" />
<rect x="101" y="58" width="1" height="1" fill="#000000" />
<rect x="102" y="58" width="1" height="1" fill="#000000" />
<rect x="103" y="58" width="1" height="1" fill="#000000" />
<rect x="104" y="58" width="1" height="1" fill="#000000" />
<rect x="105" y="58" width="1" height="1" fill="#000000" />
<rect x="106" y="58" width="1" height="1" fill="#000000" />
<rect x="107" y="58" width="1" height="1" fill="#000000" />
<rect x="108" y="58" width="1" height="1" fill="#000000" />
<rect x="109" y="58" width="1" height="1" fill="#000000" />
<rect x="110" y="58" width="1" height="1" fill="#000000" />
<rect x="111" y="58" width="1" height="1" fill="#000000" />
<rect x="112" y="58" width="1" height="1" fill="#000000" />
<rect x="113" y="58" width="1" height="1" fill="#000000" />
<rect x="114" y="58" width="1" height="1" fill="#000000" />
<rect x="115" y="58" width="1" height="1" fill="#000000" />
<rect x="116" y="58" width="1" height="1" fill="#000000" />
<rect x="117" y="58" width="1" height="1" fill="#000000" />
<rect x="118" y="58" width="1" height="1" fill="#000000" />
<rect x="119" y="58" width="1" height="1" fill="#000000" />
<rect x="120" y="58" width="1" height="1" fill="#000000" />
<rect x="121" y="58" width="1" height="1" fill="#000000" />
<rect x="122" y="58" width="1" height="1" fill="#000000" />
<rect x="123" y="58" width="1" height="1" fill="#000000" />
<rect x="124" y="58" width="1" height="1" fill="#000000" />
<rect x="125" y="58" width="1" height="1" fill="#000000" />
<rect x="126" y="58" width="1" height="1" fill="#000000" />
<rect x="127" y="58" width="1" height="1" fill="#000000" />
<rect x="64" y="59" width="1" height="1" fill="#000000" />
<rect x="65" y="59" width="1" height="1" fill="#000000" />
<rect x="66" y="59" width="1" height="1" fill="#000000" />
<rect x="67" y="59" width="1" height="1" fill="#000000" />
<rect x="68" y="59" width="1" height="1" fill="#000000" />
<rect x="69" y="59" width="1" height="1" fill="#000000" />
<rect x="70" y="59" width="1" height="1" fill="#000000" />
<rect x="71" y="59" width="1" height="1" fill="#000000" />
<rect x="72" y="59" width="1" height="1" fill="#000000" />
<rect x="73" y="59" width="1" height="1" fill="#000000" />
<rect x="74" y="59" width="1" height="1" fill="#000000" />
<rect x="75" y="59" width="1" height="1" fill="#000000" />
<rect x="76" y="59" width="1" height="1" fill="#000000" />
<rect x="77" y="59" width="1" height="1" fill="#000000" />
<rect x="78" y="59" width="1" height="1" fill="#000000" />
<rect x="79" y="59" width="1" height="1" fill="#000000" />
<rect x="80" y="59" width="1" height="1" fill="#000000" />
<rect x="81" y="59" width="1" height="1" fill="#000000" />
<rect x="82" y="59" width="1" height="1" fill="#000000" />
<rect x="83" y="59" width="1" height="1" fill="#000000" />
<rect x="84" y="59" width="1" height="1" fill="#000000" />
<rect x="85" y="59" width="1" height="1" fill="#000000" />
<rect x="86" y="59" width="1" height="1" fill="#000000" />
<rect x="87" y="59" width="1" height="1" fill="#000000" />
<rect x="88" y="59" width="1" height="1" fill="#000000" />
<rect x="89" y="59" width="1" height="1" fill="#000000" />
<rect x="90" y="59" width="1" height="1" fill="#000000" />
<rect x="91" y="59" width="1" height="1" fill="#000000" />
<rect x="92" y="59" width="1" height="1" fill="#000000" />
<rect x="93" y="59" width="1" height="1" fill="#000000" />
<rect x="94" y="59" width="1" height="1" fill="#000000" />
<rect x="95" y="59" width="1" height="1" fill="#000000" />
<rect x="96" y="59" width="1" height="1" fill="#000000" />
<rect x="97" y="59" width="1" height="1" fill="#000000" />
<rect x="98" y="59" width="1" height="1" fill="#000000" />
<rect x="99" y="59" width="1" height="1" fill="#000000" />
<rect x="100" y="59" width="1" height="1" fill="#000000" />
<rect x="101" y="59" width="1" height="1" fill="#000000" />
<rect x="102" y="59" width="1" height="1" fill="#000000" />
<rect x="103" y="59" width="1" height="1" fill="#000000" />
<rect x="104" y="59" width="1" height="1" fill="#000000" />
<rect x="105" y="59" width="1" height="1" fill="#000000" />
<rect x="106" y="59" width="1" height="1" fill="#000000" />
<rect x="107" y="59" width="1" height="1" fill="#000000" />
<rect x="108" y="59" width="1" height="1" fill="#000000" />
<rect x="109" y="59" width="1" height="1" fill="#000000" />
<rect x="110" y="59" width="1" height="1" fill="#000000" />
<rect x="111" y="59" width="1" height="1" fill="#000000" />
<rect x="112" y="59" width="1" height="1" fill="#000000" />
<rect x="113" y="59" width="1" height="1" fill="#000000" />
<rect x="114" y="59" width="1" height="1" fill="#000000" />
<rect x="115" y="59" width="1" height="1" fill="#000000" />
<rect x="116" y="59" width="1" height="1" fill="#000000" />
<rect x="117" y="59" width="1" height="1" fill="#000000" />
<rect x="118" y="59" width="1" height="1" fill="#000000" />
<rect x="119" y="59" width="1" height="1" fill="#000000" />
<rect x="120" y="59" width="1" height="1" fill="#000000" />
<rect x="121" y="59" width="1" height="1" fill="#000000" />
<rect x="122" y="59" width="1" height="1" fill="#000000" />
<rect x="123" y="59" width="1" height="1" fill="#000000" />
<rect x="124" y="59" width="1" height="1" fill="#000000" />
<rect x="125" y="59" width="1" height="1" fill="#000000" />
<rect x="126" y="59" width="1" height="1" fill="#000000" />
<rect x="127" y="59" width="1" height="1" fill="#000000" />
<rect x="64" y="60" width="1" height="1" fill="#000000" />
<rect x="65" y="60" width="1" height="1" fill="#000000" />
<rect x="66" y="60" width="1" height="1" fill="#000000" />
<rect x="125" y="60" width="1" height="1" fill="#000000" />
<rect x="126" y="60" width="1" height="1" fill="#000000" />
<rect x="127" y="60" width="1" height="1" fill="#000000" />
<rect x="64" y="61" width="1" height="1" fill="#000000" />
<rect x="65" y="61" width="1" height="1" fill="#000000" />
<rect x="66" y="61" width="1" height="1" fill="#000000" />
<rect x="125" y="61" width="1" height="1" fill="#000000" />
<rect x="126" y="61" width="1" height="1" fill="#000000" />
<rect x="127" y="61" width="1" height="1" fill="#000000" />
<rect x="64" y="62" width="1" height="1" fill="#000000" />
<rect x="65" y="62" width="1" height="1" fill="#000000" />
<rect x="66" y="62" width="1" height="1" fill="#000000" />
<rect x="80" y="62" width="1" height="1" fill="#555555" />
<rect x="81" y="62" width="1" height="1" fill="#555555" />
<rect x="82" y="62" width="1" height="1" fill="#555555" />
<rect x="83" y="62" width="1" height="1" fill="#555555" />
<rect x="84" y="62" width="1" height="1" fill="#555555" />
<rect x="85" y="62" width="1" height="1" fill="#555555" />
<rect x="92" y="62" width="1" height="1" fill="#555555" />
<rect x="93" y="62" width="1" height="1" fill="#555555" />
<rect x="94" y="62" width="1" height="1" fill="#555555" />
<rect x="95" y="62" width="1" height="1" fill="#555555" />
<rect x="96" y="62" width="1" height="1" fill="#555555" />
<rect x="97" y="62" width="1" height="1" fill="#555555" />
<rect x="105" y="62" width="1" height="1" fill="#555555" />
<rect x="106" y="62" width="1" height="1" fill="#555555" />
<rect x="107" y="62" width="1" height="1" fill="#555555" />
<rect x="108" y="62" width="1" height="1" fill="#555555" />
<rect x="109" y="62" width="1" height="1" fill="#555555" />
<rect x="125" y="62" width="1" height="1" fill="#000000" />
<rect x="126" y="62" width="1" height="1" fill="#000000" />
<rect x="127" y="62" width="1" height="1" fill="#000000" />
<rect x="64" y="63" width="1" height="1" fill="#000000" />
<rect x="65" y="63" width="1" height="1" fill="#000000" />
<rect x="66" y="63" width="1" height="1" fill="#000000" />
<rect x="80" y="63" width="1" height="1" fill="#000000" />
<rect x="81" y="63" width="1" height="1" fill="#000000" />
<rect x="82" y="63" width="1" height="1" fill="#000000" />
<rect x="83" y="63" width="1" height="1" fill="#000000" />
<rect x="84" y="63" width="1" height="1" fill="#000000" />
<rect x="85" y="63" width="1" height="1" fill="#000000" />
<rect x="92" y="63" width="1" height="1" fill="#000000" />
<rect x="93" y="63" width="1" height="1" fill="#000000" />
<rect x="94" y="63" width="1" height="1" fill="#000000" />
<rect x="95" y="63" width="1" height="1" fill="#000000" />
<rect x="96" y="63" width="1" height="1" fill="#000000" />
<rect x="97" y="63" width="1" height="1" fill="#000000" />
<rect x="105" y="63" width="1" height="1" fill="#000000" />
<rect x="106" y="63" width="1" height="1" fill="#000000" />
<rect x="107" y="63" width="1" height="1" fill="#000000" />
<rect x="108" y="63" width="1" height="1" fill="#000000" />
<rect x="109" y="63" width="1" height="1" fill="#000000" />
<rect x="125" y="63" width="1" height="1" fill="#000000" />
<rect x="126" y="63" width="1" height="1" fill="#000000" />
<rect x="127" y="63" width="1" height="1" fill="#000000" />
<rect x="64" y="64" width="1" height="1" fill="#000000" />
<rect x="65" y="64" width="1" height="1" fill="#000000" />
<rect x="66" y="64" width="1" height="1" fill="#000000" />
<rect x="80" y="64" width="1" height="1" fill="#000000" />
<rect x="81" y="64" width="1" height="1" fill="#000000" />
<rect x="82" y="64" width="1" height="1" fill="#000000" />
<rect x="83" y="64" width="1" height="1" fill="#000000" />
<rect x="84" y="64" width="1" height="1" fill="#000000" />
<rect x="85" y="64" width="1" height="1" fill="#000000" />
<rect x="86" y="64" width="1" height="1" fill="#555555" />
<rect x="91" y="64" width="1" height="1" fill="#555555" />
<rect x="92" y="64" width="1" height="1" fill="#000000" />
<rect x="93" y="64" width="1" height="1" fill="#000000" />
<rect x="94" y="64" width="1" height="1" fill="#000000" />
<rect x="95" y="64" width="1" height="1" fill="#000000" />
<rect x="96" y="64" width="1" height="1" fill="#000000" />
<rect x="97" y="64" width="1" height="1" fill="#000000" />
<rect x="105" y="64" width="1" height="1" fill="#000000" />
<rect x="106" y="64" width="1" height="1" fill="#000000" />
<rect x="107" y="64" width="1" height="1" fill="#000000" />
<rect x="108" y="64" width="1" height="1" fill="#000000" />
<rect x="109" y="64" width="1" height="1" fill="#000000" />
<rect x="125" y="64" width="1" height="1" fill="#000000" />
<rect x="126" y="64" width="1" height="1" fill="#000000" />
<rect x="127" y="64" width="1" height="1" fill="#000000" />
<rect x="64" y="65" width="1" height="1" fill="#000000" />
<rect x="65" y="65" width="1" height="1" fill="#000000" />
<rect x="66" y="65" width="1" height="1" fill="#000000" />
<rect x="82" y="65" width="1" height="1" fill="#000000" />
<rect x="83" y="65" width="1" height="1" fill="#000000" />
<rect x="84" y="65" width="1" height="1" fill="#000000" />
<rect x="85" y="65" width="1" height="1" fill="#000000" />
<rect x="86" y="65" width="1" height="1" fill="#000000" />
<rect x="91" y="65" width="1" height="1" fill="#000000" />
<rect x="92" y="65" width="1" height="1" fill="#000000" />
<rect x="93" y="65" width="1" height="1" fill="#000000" />
<rect x="94" y="65" width="1" height="1" fill="#000000" />
<rect x="95" y="65" width="1" height="1" fill="#000000" />
<rect x="96" y="65" width="1" height="1" fill="#000000" />
<rect x="105" y="65" width="1" height="1" fill="#000000" />
<rect x="106" y="65" width="1" height="1" fill="#000000" />
<rect x="107" y="65" width="1" height="1" fill="#000000" />
<rect x="108" y="65" width="1" height="1" fill="#000000" />
<rect x="109" y="65" width="1" height="1" fill="#000000" />
<rect x="125" y="65" width="1" height="1" fill="#000000" />
<rect x="126" y="65" width="1" height="1" fill="#000000" />
<rect x="127" y="65" width="1" height="1" fill="#000000" />
<rect x="64" y="66" width="1" height="1" fill="#000000" />
<rect x="65" y="66" width="1" height="1" fill="#000000" />
<rect x="66" y="66" width="1" height="1" fill="#000000" />
<rect x="81" y="66" width="1" height="1" fill="#555555" />
<rect x="82" y="66" width="1" height="1" fill="#000000" />
<rect x="83" y="66" width="1" height="1" fill="#000000" />
<rect x="84" y="66" width="1" height="1" fill="#000000" />
<rect x="85" y="66" width="1" height="1" fill="#000000" />
<rect x="86" y="66" width="1" height="1" fill="#000000" />
<rect x="87" y="66" width="1" height="1" fill="#555555" />
<rect x="91" y="66" width="1" height="1" fill="#000000" />
<rect x="92" y="66" width="1" height="1" fill="#000000" />
<rect x="93" y="66" width="1" height="1" fill="#000000" />
<rect x="94" y="66" width="1" height="1" fill="#000000" />
<rect x="95" y="66" width="1" height="1" fill="#000000" />
<rect x="96" y="66" width="1" height="1" fill="#555555" />
<rect x="105" y="66" width="1" height="1" fill="#000000" />
<rect x="106" y="66" width="1" height="1" fill="#000000" />
<rect x="107" y="66" width="1" height="1" fill="#000000" />
<rect x="108" y="66" width="1" height="1" fill="#000000" />
<rect x="109" y="66" width="1" height="1" fill="#000000" />
<rect x="125" y="66" width="1" height="1" fill="#000000" />
<rect x="126" y="66" width="1" height="1" fill="#000000" />
<rect x="127" y="66" width="1" height="1" fill="#000000" />
<rect x="64" y="67" width="1" height="1" fill="#000000" />
<rect x="65" y="67" width="1" height="1" fill="#000000" />
<rect x="66" y="67" width="1" height="1" fill="#000000" />
<rect x="81" y="67" width="1" height="1" fill="#000000" />
<rect x="82" y="67" width="1" height="1" fill="#000000" />
<rect x="83" y="67" width="1" height="1" fill="#000000" />
<rect x="84" y="67" width="1" height="1" fill="#000000" />
<rect x="85" y="67" width="1" height="1" fill="#000000" />
<rect x="86" y="67" width="1" height="1" fill="#000000" />
<rect x="87" y="67" width="1" height="1" fill="#000000" />
<rect x="90" y="67" width="1" height="1" fill="#555555" />
<rect x="91" y="67" width="1" height="1" fill="#000000" />
<rect x="93" y="67" width="1" height="1" fill="#000000" />
<rect x="94" y="67" width="1" height="1" fill="#000000" />
<rect x="95" y="67" width="1" height="1" fill="#000000" />
<rect x="96" y="67" width="1" height="1" fill="#000000" />
<rect x="105" y="67" width="1" height="1" fill="#000000" />
<rect x="106" y="67" width="1" height="1" fill="#000000" />
<rect x="107" y="67" width="1" height="1" fill="#000000" />
<rect x="108" y="67" width="1" height="1" fill="#000000" />
<rect x="109" y="67" width="1" height="1" fill="#000000" />
<rect x="125" y="67" width="1" height="1" fill="#000000" />
<rect x="126" y="67" width="1" height="1" fill="#000000" />
<rect x="127" y="67" width="1" height="1" fill="#000000" />
<rect x="64" y="68" width="1" height="1" fill="#000000" />
<rect x="65" y="68" width="1" height="1" fill="#000000" />
<rect x="66" y="68" width="1" height="1" fill="#000000" />
<rect x="81" y="68" width="1" height="1" fill="#000000" />
<rect x="82" y="68" width="1" height="1" fill="#000000" />
<rect x="84" y="68" width="1" height="1" fill="#000000" />
<rect x="85" y="68" width="1" height="1" fill="#000000" />
<rect x="86" y="68" width="1" height="1" fill="#000000" />
<rect x="87" y="68" width="1" height="1" fill="#000000" />
<rect x="90" y="68" width="1" height="1" fill="#000000" />
<rect x="91" y="68" width="1" height="1" fill="#000000" />
<rect x="93" y="68" width="1" height="1" fill="#000000" />
<rect x="94" y="68" width="1" height="1" fill="#000000" />
<rect x="95" y="68" width="1" height="1" fill="#000000" />
<rect x="96" y="68" width="1" height="1" fill="#000000" />
<rect x="105" y="68" width="1" height="1" fill="#000000" />
<rect x="106" y="68" width="1" height="1" fill="#000000" />
<rect x="107" y="68" width="1" height="1" fill="#000000" />
<rect x="108" y="68" width="1" height="1" fill="#000000" />
<rect x="109" y="68" width="1" height="1" fill="#000000" />
<rect x="125" y="68" width="1" height="1" fill="#000000" />
<rect x="126" y="68" width="1" height="1" fill="#000000" />
<rect x="127" y="68" width="1" height="1" fill="#000000" />
<rect x="64" y="69" width="1" height="1" fill="#000000" />
<rect x="65" y="69" width="1" height="1" fill="#000000" />
<rect x="66" y="69" width="1" height="1" fill="#000000" />
<rect x="81" y="69" width="1" height="1" fill="#000000" />
<rect x="82" y="69" width="1" height="1" fill="#000000" />
<rect x="84" y="69" width="1" height="1" fill="#000000" />
<rect x="85" y="69" width="1" height="1" fill="#000000" />
<rect x="86" y="69" width="1" height="1" fill="#000000" />
<rect x="87" y="69" width="1" height="1" fill="#000000" />
<rect x="88" y="69" width="1" height="1" fill="#555555" />
<rect x="90" y="69" width="1" height="1" fill="#000000" />
<rect x="91" y="69" width="1" height="1" fill="#000000" />
<rect x="93" y="69" width="1" height="1" fill="#000000" />
<rect x="94" y="69" width="1" height="1" fill="#000000" />
<rect x="95" y="69" width="1" height="1" fill="#000000" />
<rect x="96" y="69" width="1" height="1" fill="#000000" />
<rect x="105" y="69" width="1" height="1" fill="#000000" />
<rect x="106" y="69" width="1" height="1" fill="#000000" />
<rect x="107" y="69" width="1" height="1" fill="#000000" />
<rect x="108" y="69" width="1" height="1" fill="#000000" />
<rect x="109" y="69" width="1" height="1" fill="#000000" />
<rect x="125" y="69" width="1" height="1" fill="#000000" />
<rect x="126" y="69" width="1" height="1" fill="#000000" />
<rect x="127" y="69" width="1" height="1" fill="#000000" />
<rect x="64" y="70" width="1" height="1" fill="#000000" />
<rect x="65" y="70" width="1" height="1" fill="#000000" />
<rect x="66" y="70" width="1" height="1" fill="#000000" />
<rect x="81" y="70" width="1" height="1" fill="#000000" />
<rect x="82" y="70" width="1" height="1" fill="#000000" />
<rect x="84" y="70" width="1" height="1" fill="#000000" />
<rect x="85" y="70" width="1" height="1" fill="#000000" />
<rect x="86" y="70" width="1" height="1" fill="#000000" />
<rect x="87" y="70" width="1" height="1" fill="#000000" />
<rect x="88" y="70" width="1" height="1" fill="#000000" />
<rect x="89" y="70" width="1" height="1" fill="#555555" />
<rect x="90" y="70" width="1" height="1" fill="#000000" />
<rect x="93" y="70" width="1" height="1" fill="#000000" />
<rect x="94" y="70" width="1" height="1" fill="#000000" />
<rect x="95" y="70" width="1" height="1" fill="#000000" />
<rect x="96" y="70" width="1" height="1" fill="#000000" />
<rect x="102" y="70" width="1" height="1" fill="#555555" />
<rect x="103" y="70" width="1" height="1" fill="#555555" />
<rect x="104" y="70" width="1" height="1" fill="#555555" />
<rect x="105" y="70" width="1" height="1" fill="#000000" />
<rect x="106" y="70" width="1" height="1" fill="#000000" />
<rect x="107" y="70" width="1" height="1" fill="#000000" />
<rect x="108" y="70" width="1" height="1" fill="#000000" />
<rect x="109" y="70" width="1" height="1" fill="#000000" />
<rect x="110" y="70" width="1" height="1" fill="#555555" />
<rect x="111" y="70" width="1" height="1" fill="#555555" />
<rect x="112" y="70" width="1" height="1" fill="#555555" />
<rect x="125" y="70" width="1" height="1" fill="#000000" />
<rect x="126" y="70" width="1" height="1" fill="#000000" />
<rect x="127" y="70" width="1" height="1" fill="#000000" />
<rect x="64" y="71" width="1" height="1" fill="#000000" />
<rect x="65" y="71" width="1" height="1" fill="#000000" />
<rect x="66" y="71" width="1" height="1" fill="#000000" />
<rect x="81" y="71" width="1" height="1" fill="#000000" />
<rect x="82" y="71" width="1" height="1" fill="#000000" />
<rect x="85" y="71" width="1" height="1" fill="#000000" />
<rect x="86" y="71" width="1" height="1" fill="#000000" />
<rect x="87" y="71" width="1" height="1" fill="#000000" />
<rect x="88" y="71" width="1" height="1" fill="#000000" />
<rect x="89" y="71" width="1" height="1" fill="#000000" />
<rect x="90" y="71" width="1" height="1" fill="#000000" />
<rect x="93" y="71" width="1" height="1" fill="#000000" />
<rect x="94" y="71" width="1" height="1" fill="#000000" />
<rect x="95" y="71" width="1" height="1" fill="#000000" />
<rect x="96" y="71" width="1" height="1" fill="#000000" />
<rect x="102" y="71" width="1" height="1" fill="#000000" />
<rect x="103" y="71" width="1" height="1" fill="#000000" />
<rect x="104" y="71" width="1" height="1" fill="#000000" />
<rect x="105" y="71" width="1" height="1" fill="#000000" />
<rect x="106" y="71" width="1" height="1" fill="#000000" />
<rect x="107" y="71" width="1" height="1" fill="#000000" />
<rect x="108" y="71" width="1" height="1" fill="#000000" />
<rect x="109" y="71" width="1" height="1" fill="#000000" />
<rect x="110" y="71" width="1" height="1" fill="#000000" />
<rect x="111" y="71" width="1" height="1" fill="#000000" />
<rect x="112" y="71" width="1" height="1" fill="#000000" />
<rect x="125" y="71" width="1" height="1" fill="#000000" />
<rect x="126" y="71" width="1" height="1" fill="#000000" />
<rect x="127" y="71" width="1" height="1" fill="#000000" />
<rect x="64" y="72" width="1" height="1" fill="#000000" />
<rect x="65" y="72" width="1" height="1" fill="#000000" />
<rect x="66" y="72" width="1" height="1" fill="#000000" />
<rect x="81" y="72" width="1" height="1" fill="#000000" />
<rect x="82" y="72" width="1" height="1" fill="#000000" />
<rect x="85" y="72" width="1" height="1" fill="#000000" />
<rect x="86" y="72" width="1" height="1" fill="#000000" />
<rect x="87" y="72" width="1" height="1" fill="#000000" />
<rect x="88" y="72" width="1" height="1" fill="#000000" />
<rect x="89" y="72" width="1" height="1" fill="#000000" />
<rect x="90" y="72" width="1" height="1" fill="#000000" />
<rect x="93" y="72" width="1" height="1" fill="#000000" />
<rect x="94" y="72" width="1" height="1" fill="#000000" />
<rect x="95" y="72" width="1" height="1" fill="#000000" />
<rect x="96" y="72" width="1" height="1" fill="#000000" />
<rect x="103" y="72" width="1" height="1" fill="#000000" />
<rect x="104" y="72" width="1" height="1" fill="#000000" />
<rect x="105" y="72" width="1" height="1" fill="#000000" />
<rect x="106" y="72" width="1" height="1" fill="#000000" />
<rect x="107" y="72" width="1" height="1" fill="#000000" />
<rect x="108" y="72" width="1" height="1" fill="#000000" />
<rect x="109" y="72" width="1" height="1" fill="#000000" />
<rect x="110" y="72" width="1" height="1" fill="#000000" />
<rect x="111" y="72" width="1" height="1" fill="#000000" />
<rect x="125" y="72" width="1" height="1" fill="#000000" />
<rect x="126" y="72" width="1" height="1" fill="#000000" />
<rect x="127" y="72" width="1" height="1" fill="#000000" />
<rect x="64" y="73" width="1" height="1" fill="#000000" />
<rect x="65" y="73" width="1" height="1" fill="#000000" />
<rect x="66" y="73" width="1" height="1" fill="#000000" />
<rect x="81" y="73" width="1" height="1" fill="#000000" />
<rect x="82" y="73" width="1" height="1" fill="#555555" />
<rect x="86" y="73" width="1" height="1" fill="#000000" />
<rect x="87" y="73" width="1" height="1" fill="#000000" />
<rect x="88" y="73" width="1" height="1" fill="#000000" />
<rect x="89" y="73" width="1" height="1" fill="#000000" />
<rect x="93" y="73" width="1" height="1" fill="#000000" />
<rect x="94" y="73" width="1" height="1" fill="#000000" />
<rect x="95" y="73" width="1" height="1" fill="#000000" />
<rect x="96" y="73" width="1" height="1" fill="#000000" />
<rect x="104" y="73" width="1" height="1" fill="#000000" />
<rect x="105" y="73" width="1" height="1" fill="#000000" />
<rect x="106" y="73" width="1" height="1" fill="#000000" />
<rect x="107" y="73" width="1" height="1" fill="#000000" />
<rect x="108" y="73" width="1" height="1" fill="#000000" />
<rect x="109" y="73" width="1" height="1" fill="#000000" />
<rect x="110" y="73" width="1" height="1" fill="#000000" />
<rect x="125" y="73" width="1" height="1" fill="#000000" />
<rect x="126" y="73" width="1" height="1" fill="#000000" />
<rect x="127" y="73" width="1" height="1" fill="#000000" />
<rect x="64" y="74" width="1" height="1" fill="#000000" />
<rect x="65" y="74" width="1" height="1" fill="#000000" />
<rect x="66" y="74" width="1" height="1" fill="#000000" />
<rect x="79" y="74" width="1" height="1" fill="#555555" />
<rect x="80" y="74" width="1" height="1" fill="#555555" />
<rect x="81" y="74" width="1" height="1" fill="#000000" />
<rect x="82" y="74" width="1" height="1" fill="#000000" />
<rect x="83" y="74" width="1" height="1" fill="#555555" />
<rect x="86" y="74" width="1" height="1" fill="#000000" />
<rect x="87" y="74" width="1" height="1" fill="#000000" />
<rect x="88" y="74" width="1" height="1" fill="#000000" />
<rect x="89" y="74" width="1" height="1" fill="#000000" />
<rect x="92" y="74" width="1" height="1" fill="#555555" />
<rect x="93" y="74" width="1" height="1" fill="#000000" />
<rect x="94" y="74" width="1" height="1" fill="#000000" />
<rect x="95" y="74" width="1" height="1" fill="#000000" />
<rect x="96" y="74" width="1" height="1" fill="#000000" />
<rect x="97" y="74" width="1" height="1" fill="#555555" />
<rect x="98" y="74" width="1" height="1" fill="#555555" />
<rect x="105" y="74" width="1" height="1" fill="#000000" />
<rect x="106" y="74" width="1" height="1" fill="#000000" />
<rect x="107" y="74" width="1" height="1" fill="#000000" />
<rect x="108" y="74" width="1" height="1" fill="#000000" />
<rect x="109" y="74" width="1" height="1" fill="#000000" />
<rect x="125" y="74" width="1" height="1" fill="#000000" />
<rect x="126" y="74" width="1" height="1" fill="#000000" />
<rect x="127" y="74" width="1" height="1" fill="#000000" />
<rect x="64" y="75" width="1" height="1" fill="#000000" />
<rect x="65" y="75" width="1" height="1" fill="#000000" />
<rect x="66" y="75" width="1" height="1" fill="#000000" />
<rect x="79" y="75" width="1" height="1" fill="#000000" />
<rect x="80" y="75" width="1" height="1" fill="#000000" />
<rect x="81" y="75" width="1" height="1" fill="#000000" />
<rect x="82" y="75" width="1" height="1" fill="#000000" />
<rect x="83" y="75" width="1" height="1" fill="#000000" />
<rect x="87" y="75" width="1" height="1" fill="#000000" />
<rect x="88" y="75" width="1" height="1" fill="#000000" />
<rect x="92" y="75" width="1" height="1" fill="#000000" />
<rect x="93" y="75" width="1" height="1" fill="#000000" />
<rect x="94" y="75" width="1" height="1" fill="#000000" />
<rect x="95" y="75" width="1" height="1" fill="#000000" />
<rect x="96" y="75" width="1" height="1" fill="#000000" />
<rect x="97" y="75" width="1" height="1" fill="#000000" />
<rect x="98" y="75" width="1" height="1" fill="#000000" />
<rect x="106" y="75" width="1" height="1" fill="#000000" />
<rect x="107" y="75" width="1" height="1" fill="#000000" />
<rect x="108" y="75" width="1" height="1" fill="#000000" />
<rect x="125" y="75" width="1" height="1" fill="#000000" />
<rect x="126" y="75" width="1" height="1" fill="#000000" />
<rect x="127" y="75" width="1" height="1" fill="#000000" />
<rect x="64" y="76" width="1" height="1" fill="#000000" />
<rect x="65" y="76" width="1" height="1" fill="#000000" />
<rect x="66" y="76" width="1" height="1" fill="#000000" />
<rect x="79" y="76" width="1" height="1" fill="#000000" />
<rect x="80" y="76" width="1" height="1" fill="#000000" />
<rect x="81" y="76" width="1" height="1" fill="#000000" />
<rect x="82" y="76" width="1" height="1" fill="#000000" />
<rect x="83" y="76" width="1" height="1" fill="#000000" />
<rect x="87" y="76" width="1" height="1" fill="#000000" />
<rect x="88" y="76" width="1" height="1" fill="#000000" />
<rect x="92" y="76" width="1" height="1" fill="#000000" />
<rect x="93" y="76" width="1" height="1" fill="#000000" />
<rect x="94" y="76" width="1" height="1" fill="#000000" />
<rect x="95" y="76" width="1" height="1" fill="#000000" />
<rect x="96" y="76" width="1" height="1" fill="#000000" />
<rect x="97" y="76" width="1" height="1" fill="#000000" />
<rect x="98" y="76" width="1" height="1" fill="#000000" />
<rect x="107" y="76" width="1" height="1" fill="#000000" />
<rect x="125" y="76" width="1" height="1" fill="#000000" />
<rect x="126" y="76" width="1" height="1" fill="#000000" />
<rect x="127" y="76" width="1" height="1" fill="#000000" />
<rect x="64" y="77" width="1" height="1" fill="#000000" />
<rect x="65" y="77" width="1" height="1" fill="#000000" />
<rect x="66" y="77" width="1" height="1" fill="#000000" />
<rect x="125" y="77" width="1" height="1" fill="#000000" />
<rect x="126" y="77" width="1" height="1" fill="#000000" />
<rect x="127" y="77" width="1" height="1" fill="#000000" />
<rect x="64" y="78" width="1" height="1" fill="#000000" />
<rect x="65" y="78" width="1" height="1" fill="#000000" />
<rect x="66" y="78" width="1" height="1" fill="#000000" />
<rect x="125" y="78" width="1" height="1" fill="#000000" />
<rect x="126" y="78" width="1" height="1" fill="#000000" />
<rect x="127" y="78" width="1" height="1" fill="#000000" />
<rect x="64" y="79" width="1" height="1" fill="#000000" />
<rect x="65" y="79" width="1" height="1" fill="#000000" />
<rect x="66" y="79" width="1" height="1" fill="#000000" />
<rect x="67" y="79" width="1" height="1" fill="#555555" />
<rect x="68" y="79" width="1" height="1" fill="#555555" />
<rect x="69" y="79" width="1" height="1" fill="#555555" />
<rect x="70" y="79" width="1" height="1" fill="#555555" />
<rect x="71" y="79" width="1" height="1" fill="#555555" />
<rect x="72" y="79" width="1" height="1" fill="#555555" />
<rect x="73" y="79" width="1" height="1" fill="#555555" />
<rect x="74" y="79" width="1" height="1" fill="#555555" />
<rect x="75" y="79" width="1" height="1" fill="#555555" />
<rect x="76" y="79" width="1" height="1" fill="#555555" />
<rect x="77" y="79" width="1" height="1" fill="#555555" />
<rect x="78" y="79" width="1" height="1" fill="#555555" />
<rect x="79" y="79" width="1" height="1" fill="#555555" />
<rect x="80" y="79" width="1" height="1" fill="#555555" />
<rect x="81" y="79" width="1" height="1" fill="#555555" />
<rect x="82" y="79" width="1" height="1" fill="#555555" />
<rect x="83" y="79" width="1" height="1" fill="#555555" />
<rect x="84" y="79" width="1" height="1" fill="#555555" />
<rect x="85" y="79" width="1" height="1" fill="#555555" />
<rect x="86" y="79" width="1" height="1" fill="#555555" />
<rect x="87" y="79" width="1" height="1" fill="#555555" />
<rect x="88" y="79" width="1" height="1" fill="#555555" />
<rect x="89" y="79" width="1" height="1" fill="#555555" />
<rect x="90" y="79" width="1" height="1" fill="#555555" />
<rect x="91" y="79" width="1" height="1" fill="#555555" />
<rect x="92" y="79" width="1" height="1" fill="#555555" />
<rect x="93" y="79" width="1" height="1" fill="#555555" />
<rect x="94" y="79" width="1" height="1" fill="#555555" />
<rect x="95" y="79" width="1" height="1" fill="#555555" />
<rect x="96" y="79" width="1" height="1" fill="#555555" />
<rect x="97" y="79" width="1" height="1" fill="#555555" />
<rect x="98" y="79" width="1" height="1" fill="#555555" />
<rect x="99" y="79" width="1" height="1" fill="#555555" />
<rect x="100" y="79" width="1" height="1" fill="#555555" />
<rect x="101" y="79" width="1" height="1" fill="#555555" />
<rect x="102" y="79" width="1" height="1" fill="#555555" />
<rect x="103" y="79" width="1" height="1" fill="#555555" />
<rect x="104" y="79" width="1" height="1" fill="#555555" />
<rect x="105" y="79" width="1" height="1" fill="#555555" />
<rect x="106" y="79" width="1" height="1" fill="#555555" />
<rect x="107" y="79" width="1" height="1" fill="#555555" />
<rect x="108" y="79" width="1" height="1" fill="#555555" />
<rect x="109" y="79" width="1" height="1" fill="#555555" />
<rect x="110" y="79" width="1" height="1" fill="#555555" />
<rect x="111" y="79" width="1" height="1" fill="#555555" />
<rect x="112" y="79" width="1" height="1" fill="#555555" />
<rect x="113" y="79" width="1" height="1" fill="#555555" />
<rect x="114" y="79" width="1" height="1" fill="#555555" />
<rect x="115" y="79" width="1" height="1" fill="#555555" />
<rect x="116" y="79" width="1" height="1" fill="#555555" />
<rect x="117" y="79" width="1" height="1" fill="#555555" />
<rect x="118" y="79" width="1" height="1" fill="#555555" />
<rect x="119" y="79" width="1" height="1" fill="#555555" />
<rect x="120" y="79" width="1" height="1" fill="#555555" />
<rect x="121" y="79" width="1" height="1" fill="#555555" />
<rect x="122" y="79" width="1" height="1" fill="#555555" />
<rect x="123" y="79" width="1" height="1" fill="#555555" />
<rect x="124" y="79" width="1" height="1" fill="#555555" />
<rect x="125" y="79" width="1" height="1" fill="#000000" />
<rect x="126" y="79" width="1" height="1" fill="#000000" />
<rect x="127" y="79" width="1" height="1" fill="#000000" />
<rect x="64" y="80" width="1" height="1" fill="#000000" />
<rect x="65" y="80" width="1" height="1" fill="#000000" />
<rect x="66" y="80" width="1" height="1" fill="#000000" />
<rect x="67" y="80" width="1" height="1" fill="#000000" />
<rect x="68" y="80" width="1" height="1" fill="#000000" />
<rect x="69" y="80" width="1" height="1" fill="#000000" />
<rect x="70" y="80" width="1" height="1" fill="#000000" />
<rect x="71" y="80" width="1" height="1" fill="#000000" />
<rect x="72" y="80" width="1" height="1" fill="#000000" />
<rect x="73" y="80" width="1" height="1" fill="#000000" />
<rect x="74" y="80" width="1" height="1" fill="#000000" />
<rect x="75" y="80" width="1" height="1" fill="#000000" />
<rect x="76" y="80" width="1" height="1" fill="#000000" />
<rect x="77" y="80" width="1" height="1" fill="#000000" />
<rect x="78" y="80" width="1" height="1" fill="#000000" />
<rect x="79" y="80" width="1" height="1" fill="#000000" />
<rect x="80" y="80" width="1" height="1" fill="#000000" />
<rect x="81" y="80" width="1" height="1" fill="#000000" />
<rect x="82" y="80" width="1" height="1" fill="#000000" />
<rect x="83" y="80" width="1" height="1" fill="#000000" />
<rect x="84" y="80" width="1" height="1" fill="#000000" />
<rect x="85" y="80" width="1" height="1" fill="#000000" />
<rect x="86" y="80" width="1" height="1" fill="#000000" />
<rect x="87" y="80" width="1" height="1" fill="#000000" />
<rect x="88" y="80" width="1" height="1" fill="#000000" />
<rect x="89" y="80" width="1" height="1" fill="#000000" />
<rect x="90" y="80" width="1" height="1" fill="#000000" />
<rect x="91" y="80" width="1" height="1" fill="#000000" />
<rect x="92" y="80" width="1" height="1" fill="#000000" />
<rect x="93" y="80" width="1" height="1" fill="#000000" />
<rect x="94" y="80" width="1" height="1" fill="#000000" />
<rect x="95" y="80" width="1" height="1" fill="#000000" />
<rect x="96" y="80" width="1" height="1" fill="#000000" />
<rect x="97" y="80" width="1" height="1" fill="#000000" />
<rect x="98" y="80" width="1" height="1" fill="#000000" />
<rect x="99" y="80" width="1" height="1" fill="#000000" />
<rect x="100" y="80" width="1" height="1" fill="#000000" />
<rect x="101" y="80" width="1" height="1" fill="#000000" />
<rect x="102" y="80" width="1" height="1" fill="#000000" />
<rect x="103" y="80" width="1" height="1" fill="#000000" />
<rect x="104" y="80" width="1" height="1" fill="#000000" />
<rect x="105" y="80" width="1" height="1" fill="#000000" />
<rect x="106" y="80" width="1" height="1" fill="#000000" />
<rect x="107" y="80" width="1" height="1" fill="#000000" />
<rect x="108" y="80" width="1" height="1" fill="#000000" />
<rect x="109" y="80" width="1" height="1" fill="#000000" />
<rect x="110" y="80" width="1" height="1" fill="#000000" />
<rect x="111" y="80" width="1" height="1" fill="#000000" />
<rect x="112" y="80" width="1" height="1" fill="#000000" />
<rect x="113" y="80" width="1" height="1" fill="#000000" />
<rect x="114" y="80" width="1" height="1" fill="#000000" />
<rect x="115" y="80" width="1" height="1" fill="#000000" />
<rect x="116" y="80" width="1" height="1" fill="#000000" />
<rect x="117" y="80" width="1" height="1" fill="#000000" />
<rect x="118" y="80" width="1" height="1" fill="#000000" />
<rect x="119" y="80" width="1" height="1" fill="#000000" />
<rect x="120" y="80" width="1" height="1" fill="#000000" />
<rect x="121" y="80" width="1" height="1" fill="#000000" />
<rect x="122" y="80" width="1" height="1" fill="#000000" />
<rect x="123" y="80" width="1" height="1" fill="#000000" />
<rect x="124" y="80" width="1" height="1" fill="#000000" />
<rect x="125" y="80" width="1" height="1" fill="#000000" />
<rect x="126" y="80" width="1" height="1" fill="#000000" />
<rect x="127" y="80" width="1" height="1" fill="#000000" />
<rect x="64" y="81" width="1" height="1" fill="#000000" />
<rect x="65" y="81" width="1" height="1" fill="#000000" />
<rect x="66" y="81" width="1" height="1" fill="#000000" />
<rect x="67" y="81" width="1" height="1" fill="#000000" />
<rect x="68" y="81" width="1" height="1" fill="#000000" />
<rect x="69" y="81" width="1" height="1" fill="#000000" />
<rect x="70" y="81" width="1" height="1" fill="#000000" />
<rect x="71" y="81" width="1" height="1" fill="#000000" />
<rect x="72" y="81" width="1" height="1" fill="#000000" />
<rect x="73" y="81" width="1" height="1" fill="#000000" />
<rect x="74" y="81" width="1" height="1" fill="#000000" />
<rect x="75" y="81" width="1" height="1" fill="#000000" />
<rect x="76" y="81" width="1" height="1" fill="#000000" />
<rect x="77" y="81" width="1" height="1" fill="#000000" />
<rect x="78" y="81" width="1" height="1" fill="#000000" />
<rect x="79" y="81" width="1" height="1" fill="#000000" />
<rect x="80" y="81" width="1" height="1" fill="#000000" />
<rect x="81" y="81" width="1" height="1" fill="#000000" />
<rect x="82" y="81" width="1" height="1" fill="#000000" />
<rect x="83" y="81" width="1" height="1" fill="#000000" />
<rect x="84" y="81" width="1" height="1" fill="#000000" />
<rect x="85" y="81" width="1" height="1" fill="#000000" />
<rect x="86" y="81" width="1" height="1" fill="#000000" />
<rect x="87" y="81" width="1" height="1" fill="#000000" />
<rect x="88" y="81" width="1" height="1" fill="#000000" />
<rect x="89" y="81" width="1" height="1" fill="#000000" />
<rect x="90" y="81" width="1" height="1" fill="#000000" />
<rect x="91" y="81" width="1" height="1" fill="#000000" />
<rect x="92" y="81" width="1" height="1" fill="#000000" />
<rect x="93" y="81" width="1" height="1" fill="#000000" />
<rect x="94" y="81" width="1" height="1" fill="#000000" />
<rect x="95" y="81" width="1" height="1" fill="#000000" />
<rect x="96" y="81" width="1" height="1" fill="#000000" />
<rect x="97" y="81" width="1" height="1" fill="#000000" />
<rect x="98" y="81" width="1" height="1" fill="#000000" />
<rect x="99" y="81" width="1" height="1" fill="#000000" />
<rect x="100" y="81" width="1" height="1" fill="#000000" />
<rect x="101" y="81" width="1" height="1" fill="#000000" />
<rect x="102" y="81" width="1" height="1" fill="#000000" />
<rect x="103" y="81" width="1" height="1" fill="#000000" />
<rect x="104" y="81" width="1" height="1" fill="#000000" />
<rect x="105" y="81" width="1" height="1" fill="#000000" />
<rect x="106" y="81" width="1" height="1" fill="#000000" />
<rect x="107" y="81" width="1" height="1" fill="#000000" />
<rect x="108" y="81" width="1" height="1" fill="#000000" />
<rect x="109" y="81" width="1" height="1" fill="#000000" />
<rect x="110" y="81" width="1" height="1" fill="#000000" />
<rect x="111" y="81" width="1" height="1" fill="#000000" />
<rect x="112" y="81" width="1" height="1" fill="#000000" />
<rect x="113" y="81" width="1" height="1" fill="#000000" />
<rect x="114" y="81" width="1" height="1" fill="#000000" />
<rect x="115" y="81" width="1" height="1" fill="#000000" />
<rect x="116" y="81" width="1" height="1" fill="#000000" />
<rect x="117" y="81" width="1" height="1" fill="#000000" />
<rect x="118" y="81" width="1" height="1" fill="#000000" />
<rect x="119" y="81" width="1" height="1" fill="#000000" />
<rect x="120" y="81" width="1" height="1" fill="#000000" />
<rect x="121" y="81" width="1" height="1" fill="#000000" />
<rect x="122" y="81" width="1" height="1" fill="#000000" />
<rect x="123" y="81" width="1" height="1" fill="#000000" />
<rect x="124" y="81" width="1" height="1" fill="#000000" />
<rect x="125" y="81" width="1" height="1" fill="#000000" />
<rect x="126" y="81" width="1" height="1" fill="#000000" />
<rect x="127" y="81" width="1" height="1" fill="#000000" />
</svg>