<?xml version="1.0" ?><svg height="24px" version="1.1" viewBox="0 0 24 24" width="24px" xmlns="http://www.w3.org/2000/svg" xmlns:xlink="http://www.w3.org/1999/xlink"><title/><desc/><g fill="none" fill-rule="evenodd" id="search" stroke="none" stroke-width="1"><path d="M11,5 C8.24078475,5 6,7.24078475 6,10 C6,12.7592153 8.24078475,15 11,15 C13.7592153,15 16,12.7592153 16,10 C16,7.24078475 13.7592153,5 11,5 Z M16.1517226,14.737509 L19.7071068,18.2928932 C20.0976311,18.6834175 20.0976311,19.3165825 19.7071068,19.7071068 C19.3165825,20.0976311 18.6834175,20.0976311 18.2928932,19.7071068 L14.5932864,16.0075 C13.5426554,16.6376337 12.3133603,17 11,17 C7.13621525,17 4,13.8637847 4,10 C4,6.13621525 7.13621525,3 11,3 C14.8637847,3 18,6.13621525 18,10 C18,11.826606 17.2990779,13.4906052 16.1517226,14.737509 Z" fill="#000000" fill-rule="nonzero"/></g></svg>