<?xml version="1.0" ?><!DOCTYPE svg  PUBLIC '-//W3C//DTD SVG 1.1//EN'  'http://www.w3.org/Graphics/SVG/1.1/DTD/svg11.dtd'><svg enable-background="new 0 0 24 24" height="24px" id="Layer_1" version="1.1" viewBox="0 0 24 24" width="24px" xml:space="preserve" xmlns="http://www.w3.org/2000/svg" xmlns:xlink="http://www.w3.org/1999/xlink"><g><path d="M5.2,22.8c-0.1,0-0.2,0-0.3-0.1c-0.2-0.1-0.2-0.3-0.2-0.5l2-7.4L0.7,9.9C0.5,9.8,0.5,9.6,0.5,9.4C0.6,9.2,0.8,9.1,1,9.1   l7.8-0.4l2.8-7.2c0.1-0.4,0.8-0.4,0.9,0l2.8,7.2L23,9.1c0.2,0,0.4,0.1,0.4,0.3c0.1,0.2,0,0.4-0.2,0.5l-6.1,4.8l2,7.4   c0.1,0.2,0,0.4-0.2,0.5c-0.2,0.1-0.4,0.1-0.6,0L12,18.5l-6.5,4.2C5.4,22.7,5.3,22.8,5.2,22.8z"/></g></svg>